<?xml version="1.0" encoding="utf-8"?>
<!-- Generator: Adobe Illustrator 24.1.1, SVG Export Plug-In . SVG Version: 6.00 Build 0)  -->
<svg version="1.1" id="Capa_1" xmlns="http://www.w3.org/2000/svg" xmlns:xlink="http://www.w3.org/1999/xlink" x="0px" y="0px"
	 viewBox="0 0 2231.4 1514.4" style="enable-background:new 0 0 2231.4 1514.4;" xml:space="preserve">
<style type="text/css">
	.st0{fill:#665940;}
	.st1{fill:#93D500;}
</style>
<g>
	<g>
		<g>
			<path class="st0" d="M372.1,813.1c-3.6,3.1-8.6,6.2-15.1,9.2c-6.5,3-13.6,5.7-21.4,8.1c-7.8,2.4-15.8,4.3-23.9,5.8
				c-8.2,1.4-16,2.2-23.4,2.2c-20.9,0-39.7-3.2-56.5-9.7c-16.8-6.5-31.1-15.5-43-27c-11.9-11.5-20.9-25.1-27.2-40.7
				c-6.2-15.6-9.4-32.4-9.4-50.4c0-22.1,3.5-41.6,10.6-58.6c7.1-17,16.7-31.5,29-43.4c12.2-11.9,26.4-20.9,42.6-27
				c16.2-6.1,33.2-9.2,50.9-9.2c15.3,0,29.5,1.7,42.5,5.2c13,3.5,24.3,8.1,34.2,13.9l-11.5,32c-5-2.6-11.1-5.2-18.2-7.7
				c-7.1-2.5-14.3-4.6-21.8-6.1c-7.4-1.6-14.3-2.3-20.5-2.3c-15.6,0-29.6,2.3-41.9,7c-12.4,4.7-23,11.4-32,20.1
				c-9,8.8-15.9,19.3-20.7,31.7c-4.8,12.4-7.2,26.2-7.2,41.6c0,13.9,2.4,26.8,7.2,38.7c4.8,11.9,11.7,22.1,20.7,30.6
				c9,8.5,19.6,15.1,31.8,19.6c12.2,4.6,25.9,6.8,41,6.8c8.6,0,17.3-0.8,25.9-2.5c8.6-1.7,15.9-4.3,21.9-7.9v-51.1h-51.4V708h86.7
				V813.1z"/>
			<path class="st0" d="M507.7,575.3c13.2,0,25.4,1.7,36.5,5.2c11.2,3.5,20.9,8.6,29.1,15.5c8.3,6.8,14.8,15.3,19.4,25.4
				c4.7,10.1,7,21.6,7,34.5c0,10.3-1.5,20.4-4.5,30.2c-3,9.8-7.9,18.8-14.8,26.8c-6.8,8-15.8,14.5-27,19.4
				c-11.2,4.9-25,7.4-41.6,7.4h-38.5v95.7h-34.9V575.3H507.7z M511.3,705.9c10.3,0,18.9-1.6,25.7-4.7c6.8-3.1,12.2-7.1,16-12.1
				c3.8-4.9,6.6-10.1,8.3-15.6c1.7-5.5,2.5-10.9,2.5-16.2c0-5.3-0.9-10.7-2.7-16.2c-1.8-5.5-4.7-10.7-8.6-15.6
				c-4-4.9-9.1-8.9-15.5-12.1c-6.4-3.1-14.1-4.7-23.2-4.7h-40.3v97.1H511.3z M554.1,726l68,109.4h-40.3l-69.4-108.3L554.1,726z"/>
			<path class="st0" d="M707,743.3c0,11.8,2.8,22.2,8.5,31.5c5.6,9.2,13.2,16.5,22.7,21.8c9.5,5.3,20,7.9,31.5,7.9
				c12.2,0,23.1-2.6,32.7-7.9c9.6-5.3,17.1-12.5,22.5-21.8c5.4-9.2,8.1-19.7,8.1-31.5v-168h34.5v169.1c0,19-4.3,35.5-13,49.6
				c-8.6,14.2-20.4,25.1-35.3,32.7c-14.9,7.7-31.4,11.5-49.6,11.5c-18,0-34.4-3.8-49.3-11.5c-14.9-7.7-26.6-18.6-35.3-32.7
				c-8.6-14.1-13-30.7-13-49.6V575.3H707V743.3z"/>
			<path class="st0" d="M1008.2,575.3c18.9,0,35.1,3.2,48.6,9.5c13.4,6.4,23.8,15.5,31.1,27.5c7.3,12,11,26.5,11,43.5
				c0,10.3-1.6,20.5-4.7,30.4c-3.1,10-8.1,18.9-14.9,27c-6.8,8-15.8,14.5-26.8,19.4c-11,4.9-24.5,7.4-40.3,7.4h-38.5v95.3h-34.9
				V575.3H1008.2z M1011.8,705.9c10.3,0,18.8-1.6,25.5-4.9c6.7-3.2,12-7.5,15.8-12.8c3.8-5.3,6.6-10.7,8.3-16.2
				c1.7-5.5,2.5-10.7,2.5-15.5c0-5.3-0.8-10.7-2.5-16.4c-1.7-5.6-4.5-10.8-8.5-15.5c-4-4.7-9.1-8.5-15.5-11.5
				c-6.4-3-14.2-4.5-23.6-4.5h-40.3v97.1H1011.8z"/>
			<path class="st0" d="M1136.6,705.5c0-18,3.4-35,10.3-51.1c6.8-16.1,16.4-30.3,28.6-42.6c12.2-12.3,26.3-22,42.3-29
				c15.9-7,33.2-10.4,51.6-10.4c18,0,35,3.5,51.1,10.4c16.1,7,30.3,16.6,42.6,29c12.3,12.4,22,26.6,29,42.6
				c7,16.1,10.4,33.2,10.4,51.4c0,18.2-3.5,35.4-10.4,51.4c-7,16.1-16.5,30.2-28.8,42.3c-12.2,12.1-26.4,21.6-42.5,28.4
				c-16.1,6.8-33.2,10.3-51.4,10.3c-18.5,0-35.7-3.4-51.6-10.1c-16-6.7-30-16.1-42.3-28.2c-12.2-12.1-21.8-26.1-28.6-42.1
				C1140,741.9,1136.6,724.5,1136.6,705.5z M1172.6,705.5c0,13.9,2.5,26.8,7.4,38.7c4.9,11.9,11.9,22.4,20.9,31.5
				c9,9.1,19.3,16.3,30.9,21.4c11.6,5.2,24.3,7.7,38,7.7c13.7,0,26.3-2.6,38-7.7c11.6-5.2,21.8-12.2,30.6-21.2
				c8.8-9,15.7-19.5,20.7-31.5c5-12,7.6-24.8,7.6-38.5c0-13.9-2.5-26.9-7.6-38.9c-5-12-11.9-22.6-20.7-31.8
				c-8.8-9.2-19.1-16.4-30.9-21.6c-11.9-5.2-24.5-7.7-38-7.7c-13.7,0-26.4,2.6-38.3,7.9c-11.9,5.3-22.2,12.5-30.9,21.6
				c-8.8,9.1-15.5,19.7-20.3,31.8C1175,679.3,1172.6,692.1,1172.6,705.5z"/>
		</g>
	</g>
	<g>
		<g>
			<path class="st0" d="M153.9,1085.9c0-23.1,4.4-45,13.2-65.7c8.8-20.7,21-39,36.7-54.9c15.7-16,33.8-28.5,54.5-37.6
				c20.7-9.1,42.9-13.7,66.6-13.7c23.4,0,45.4,4.6,66.1,13.7c20.7,9.1,39,21.7,54.9,37.6c16,16,28.4,34.3,37.4,54.9
				c9,20.7,13.5,42.6,13.5,65.7c0,23.7-4.5,45.9-13.5,66.6c-9,20.7-21.4,38.8-37.4,54.5c-16,15.7-34.3,27.9-54.9,36.7
				c-20.7,8.8-42.7,13.2-66.1,13.2c-23.7,0-45.9-4.4-66.6-13.2c-20.7-8.8-38.8-21-54.5-36.7c-15.7-15.7-27.9-33.8-36.7-54.5
				C158.3,1131.8,153.9,1109.6,153.9,1085.9z M222.2,1085.9c0,14.6,2.7,28.3,8,41.3c5.3,12.9,12.8,24.3,22.3,34.2
				c9.6,9.9,20.7,17.6,33.3,23c12.6,5.5,26.4,8.2,41.3,8.2c14.3,0,27.6-2.7,39.9-8.2c12.3-5.5,23-13.1,32.1-22.8
				c9.1-9.7,16.3-21,21.4-34c5.2-12.9,7.8-26.8,7.8-41.7c0-14.6-2.7-28.3-8-41.3c-5.3-12.9-12.6-24.2-21.9-34
				c-9.3-9.7-20.1-17.3-32.6-22.8c-12.5-5.5-26-8.2-40.6-8.2s-28.1,2.7-40.6,8.2c-12.5,5.5-23.4,13.1-32.8,22.8
				c-9.4,9.7-16.7,21.1-21.9,34C224.8,1057.6,222.2,1071.3,222.2,1085.9z M411.5,1188.5h104v64.7H324.8L411.5,1188.5z"/>
			<path class="st0" d="M615.3,1129.2c0,10.6,3.2,20.8,9.6,30.5c6.4,9.7,14.8,17.6,25.3,23.7c10.5,6.1,22,9.1,34.4,9.1
				c13.7,0,25.8-3,36.5-9.1c10.6-6.1,19.1-14,25.3-23.7c6.2-9.7,9.3-19.9,9.3-30.5V917.7h65.2v212.9c0,24.6-6.1,46.4-18.2,65.4
				c-12.2,19-28.6,33.9-49.2,44.7c-20.7,10.8-43.6,16.2-68.8,16.2c-24.9,0-47.6-5.4-68.2-16.2c-20.5-10.8-36.9-25.7-49-44.7
				c-12.2-19-18.2-40.8-18.2-65.4V917.7h66.1V1129.2z"/>
			<path class="st0" d="M875.2,917.7h66.1v335.6h-66.1V917.7z"/>
			<path class="st0" d="M1302.8,1266.9l-254.4-229.8l19.6,10.9l1.4,205.2h-67V904.5h2.7l248.9,228.9l-14.6-6.4l-1.4-209.3h66.6
				v349.3H1302.8z"/>
			<path class="st0" d="M1343,917.7h226.1v63.8h-81.6v271.7h-66.1V981.5H1343V917.7z"/>
			<path class="st0" d="M1569.6,1253.3l151.4-348.8h3.6l151.4,348.8h-76.6l-96.7-245.3l47.9-32.8l-115.8,278.1H1569.6z M1673.1,1132
				h100.8l23.3,55.6h-144.5L1673.1,1132z"/>
			<path class="st0" d="M1899.2,917.7h66.1v271.7h157.8v63.8h-223.9V917.7z"/>
		</g>
	</g>
	<path class="st0" d="M2099.8,495.9c0,91.9-36.3,175.3-95.5,236.7c-11.3-32.9-27.5-63.5-47.8-91c30.1-40.8,47.9-91.1,47.9-145.7
		c0-135.6-110-245.6-245.6-245.6c-135.6,0-245.5,109.8-245.6,245.3h-95.4c0-8.7,0.3-17.4,1-26c13.4-176.1,160.5-314.8,340-314.8
		C1947.2,154.9,2099.8,307.6,2099.8,495.9z"/>
	<path class="st1" d="M1983.2,740.8c-10.6-28.6-25-55.4-42.5-79.8c-61.9-86.3-163-142.5-277.3-142.5h-244.8c0,1.2,0.1,2.3,0.2,3.5
		c0.4,5.8,1,11.5,1.7,17.2c1.1,8.6,2.5,17.1,4.2,25.5c0.7,3.5,1.5,7,2.3,10.4c2.5,10.3,5.4,20.5,8.8,30.4c0.1,0.5,0.3,1,0.5,1.5
		c8.9,25.9,20.9,50.4,35.4,73.1c46.4,72.2,119.2,125.7,204.8,147c2.8,0.7,5.5,1.3,8.3,1.9c3.2,0.7,6.4,1.4,9.6,2
		c6.4,1.2,12.9,2.3,19.5,3.1c3.3,0.5,6.6,0.8,9.9,1.2c5.2,0.5,10.4,0.9,15.6,1.2c6.4,0.4,12.7,0.6,19.2,0.6h341.5v-96.2H1983.2z
		 M1778.2,740.8c-6.4,0.5-12.8,0.7-19.3,0.7c-6.5,0-12.9-0.2-19.2-0.7c-81.3-6.3-151.5-52.2-191.4-118.4
		c32.3-15.6,68.4-24.3,106.7-24.3c89.4,0,167.6,47.7,210.6,119.2C1838.7,730.1,1809.3,738.3,1778.2,740.8z"/>
</g>
</svg>
